#!OML:ASF H:\ManfredETheater\Project 1\Capture day 1\Session 1\subject.ASF
:FULLY-SPECIFIED
:DEGREES
161
root -5.7287 9.81664 -13.6883 -12.1055 66.4191 -18.6178
lowerback 59.3853 -5.03581 2.49233
upperback 12.5807 -1.56323 3.94225
thorax -7.18647 -0.193041 3.86201
lowerneck 3.66945 -13.7773 -13.6664
upperneck -16.8148 -17.2145 25.6336
head -1.75012 -9.54538 10.2003
rclavicle 3.10104e-014 -4.05521e-014
rhumerus -30.3683 -11.9191 -56.1689
rradius 93.6841
rwrist -17.0502
rhand -29.2269 -17.4984
rfingers 7.12502
rthumb -2.57081 -47.4627
lclavicle 3.10104e-014 -4.05521e-014
lhumerus -18.8139 10.9177 53.3591
lradius 96.1824
lwrist 7.95105
lhand -31.4697 6.38368
lfingers 7.12502
lthumb -4.73668 36.3107
rfemur -77.7701 -36.4514 1.96548
rtibia 105.801
rfoot -16.7835 2.60393
rtoes -39.3759
lfemur -92.2197 31.8215 -9.85161
ltibia 131.156
lfoot -24.7634 -47.2163
ltoes 27.0555
162
root -5.73936 9.71776 -13.5632 -12.0436 66.6578 -18.1544
lowerback 59.6181 -5.05331 2.4072
upperback 12.6212 -1.59523 3.90695
thorax -7.14676 -0.196707 3.8768
lowerneck 3.91029 -13.8317 -13.639
upperneck -16.8746 -17.3098 25.5793
head -1.79946 -9.60664 10.1963
rclavicle -3.33958e-014 4.59193e-014
rhumerus -29.7094 -11.7052 -55.9677
rradius 93.1532
rwrist -17.3749
rhand -29.2584 -17.5647
rfingers 7.12502
rthumb -2.60129 -47.5285
lclavicle -3.33958e-014 4.59193e-014
lhumerus -18.6166 10.4695 52.7149
lradius 95.6391
lwrist 8.00801
lhand -30.754 6.30472
lfingers 7.12502
lthumb -4.04558 36.2461
rfemur -78.2099 -37.1189 1.88716
rtibia 107.321
rfoot -17.5028 2.65599
rtoes -39.5207
lfemur -92.3027 32.7923 -9.3013
ltibia 131.793
lfoot -24.3763 -48.1578
ltoes 27.0737
163
root -5.74923 9.62019 -13.44 -11.9367 66.895 -17.6435
lowerback 59.8602 -5.07195 2.32111
upperback 12.6519 -1.62854 3.87396
thorax -7.11764 -0.20113 3.89535
lowerneck 4.12285 -13.8897 -13.6049
upperneck -16.92 -17.4107 25.4998
head -1.84271 -9.6671 10.1795
rclavicle -3.4191e-014 3.33958e-014
rhumerus -29.0448 -11.4271 -55.7271
rradius 92.6717
rwrist -17.581
rhand -29.3356 -17.5394
rfingers 7.12502
rthumb -2.67585 -47.5024
lclavicle -3.4191e-014 3.33958e-014
lhumerus -18.4073 9.95972 52.0707
lradius 95.1737
lwrist 8.14734
lhand -29.9815 6.21941
lfingers 7.12502
lthumb -3.29964 36.1736
rfemur -78.6314 -37.8164 1.79024
rtibia 108.805
rfoot -18.232 2.70254
rtoes -39.6888
lfemur -92.325 33.722 -8.74843
ltibia 132.404
lfoot -24.0925 -49.012
ltoes 27.0486
164
root -5.75852 9.52397 -13.3185 -11.7973 67.1324 -17.105
lowerback 60.102 -5.0919 2.23762
upperback 12.6753 -1.66148 3.84754
thorax -7.09619 -0.205844 3.91991
lowerneck 4.31138 -13.9516 -13.5682
upperneck -16.9505 -17.518 25.4003
head -1.87923 -9.72757 10.1524
rclavicle 0 -3.71727e-014
rhumerus -28.3615 -11.0761 -55.436
rradius 92.2198
rwrist -17.6027
rhand -29.3829 -17.4363
rfingers 7.12502
rthumb -2.72149 -47.3987
lclavicle 0 -3.71727e-014
lhumerus -18.1718 9.40068 51.4298
lradius 94.7639
lwrist 8.33982
lhand -29.1828 6.09252
lfingers 7.12502
lthumb -2.52826 36.0573
rfemur -79.0462 -38.5449 1.69099
rtibia 110.259
rfoot -18.971 2.74181
rtoes -39.8777
lfemur -92.3001 34.6064 -8.19087
ltibia 132.993
lfoot -23.928 -49.7632
ltoes 26.9331
165
root -5.76732 9.42866 -13.1982 -11.5948 67.3615 -16.5249
lowerback 60.3129 -5.10508 2.14664
upperback 12.6984 -1.69428 3.82634
thorax -7.07375 -0.211476 3.95273
lowerneck 4.47791 -14.0153 -13.5343
upperneck -16.9661 -17.6286 25.2886
head -1.90849 -9.7869 10.1187
rclavicle -2.8625e-014 6.16232e-014
rhumerus -27.6479 -10.657 -55.0959
rradius 91.7879
rwrist -17.4049
rhand -29.3676 -17.2518
rfingers 7.12502
rthumb -2.70674 -47.2144
lclavicle -2.8625e-014 6.16232e-014
lhumerus -17.9036 8.81249 50.791
lradius 94.3938
lwrist 8.54253
lhand -28.3893 5.90764
lfingers 7.12502
lthumb -1.76188 35.8801
rfemur -79.4937 -39.2961 1.60737
rtibia 111.689
rfoot -19.7104 2.77311
rtoes -40.0615
lfemur -92.2585 35.4601 -7.63936
ltibia 133.567
lfoot -23.8875 -50.4096
ltoes 26.684
